<?xml version="1.0" encoding="utf-8"?>
<!-- Generator: Adobe Illustrator 24.0.1, SVG Export Plug-In . SVG Version: 6.00 Build 0)  -->
<svg version="1.1" id="Layer_1" xmlns="http://www.w3.org/2000/svg" xmlns:xlink="http://www.w3.org/1999/xlink" x="0px" y="0px"
	 width="24px" height="24px" viewBox="0 0 24 24" style="enable-background:new 0 0 24 24;" xml:space="preserve">
<g>
	<path d="M22,5c0.1-0.8-0.2-1.5-0.7-2.1C20.7,2.3,19.9,2,19.1,2H5C3.3,2,2,3.3,2,5v14c0,1.7,1.3,3,3,3H19c1.6,0,3-1.3,3-3L22,5z
		 M20.1,19c0,0.6-0.5,1-1,1H5c-0.6,0-1-0.5-1-1.1V5c0-0.6,0.5-1,1-1h14.2c0.3,0,0.5,0.1,0.7,0.3c0.1,0.1,0.3,0.3,0.2,0.7V19z"/>
	<path d="M14.1,11.7c-0.5-0.2-1-0.3-1.5-0.4V8.7c0.7,0.2,1.3,0.6,1.5,1.4c0.1,0.4,0.5,0.6,0.9,0.5c0.4-0.1,0.6-0.5,0.5-0.9
		c-0.4-1.4-1.5-2.3-2.9-2.5V6.4c0-0.3-0.2-0.5-0.5-0.5c-0.3,0-0.5,0.2-0.5,0.5v0.8c-0.2,0-0.5,0.1-0.7,0.1C10,7.4,9.3,7.9,8.9,8.6
		C8.6,9.3,8.5,10,8.8,10.7c0.5,1.3,1.6,1.7,2.7,1.9v2.8c-0.8-0.2-1.5-0.8-1.6-1.5c-0.1-0.4-0.4-0.7-0.9-0.6
		c-0.4,0.1-0.7,0.4-0.6,0.8c0.2,1.4,1.5,2.5,3,2.8v0.7c0,0.3,0.2,0.5,0.5,0.5c0.3,0,0.5-0.2,0.5-0.5v-0.7c0,0,0,0,0,0
		c0.9-0.1,2.1-0.4,2.8-1.6c0.4-0.6,0.4-1.4,0.2-2.1C15.3,12.5,14.8,12,14.1,11.7z M10.2,10.2c-0.1-0.3-0.1-0.6,0-0.9
		c0.2-0.3,0.5-0.5,0.8-0.6c0.1,0,0.3,0,0.4-0.1V11C10.9,10.9,10.4,10.7,10.2,10.2z M14.1,14.6c-0.2,0.4-0.7,0.7-1.5,0.8v-2.6
		c0.3,0.1,0.6,0.1,0.9,0.2c0.4,0.2,0.6,0.5,0.7,0.7C14.2,14,14.2,14.4,14.1,14.6z"/>
</g>
<g>
</g>
<g>
</g>
<g>
</g>
<g>
</g>
<g>
</g>
</svg>
