<?xml version="1.0" encoding="utf-8"?>
<!-- Generator: Adobe Illustrator 24.0.1, SVG Export Plug-In . SVG Version: 6.00 Build 0)  -->
<svg version="1.1" id="Layer_1" xmlns="http://www.w3.org/2000/svg" xmlns:xlink="http://www.w3.org/1999/xlink" x="0px" y="0px"
	 width="24px" height="24px" viewBox="0 0 24 24" style="enable-background:new 0 0 24 24;" xml:space="preserve">
<g>
	<path d="M20.5,2.9H3.5C2.7,2.9,2,3.6,2,4.4v9.4c0,0.8,0.7,1.5,1.5,1.5h6.3v2.5H7.3c-0.3,0-0.5,0.2-0.5,0.5v2.4
		c0,0.3,0.2,0.5,0.5,0.5h9.5c0.3,0,0.5-0.2,0.5-0.5v-2.4c0-0.3-0.2-0.5-0.5-0.5h-2.5v-2.5h6.3c0.8,0,1.5-0.7,1.5-1.5V4.4
		C22,3.6,21.3,2.9,20.5,2.9z M19.3,12.2c0,0.3-0.3,0.6-0.6,0.6H5.3c-0.3,0-0.6-0.3-0.6-0.6V6c0-0.3,0.3-0.6,0.6-0.6h13.5
		c0.3,0,0.6,0.3,0.6,0.6V12.2z"/>
	<path d="M6.2,11.6h11.6c0.2,0,0.3-0.1,0.3-0.3V6.9c0-0.2-0.1-0.3-0.3-0.3H6.2C6,6.5,5.9,6.7,5.9,6.9v4.4C5.9,11.5,6,11.6,6.2,11.6z
		"/>
</g>
<g>
</g>
<g>
</g>
<g>
</g>
<g>
</g>
<g>
</g>
</svg>
